<svg width="26" height="16" viewBox="0 0 26 16" fill="none" xmlns="http://www.w3.org/2000/svg">
<path d="M16.5946 1.68945H9.62354V14.0949H16.5946V1.68945Z" fill="#FF5F00"/>
<path d="M10.0662 7.89223C10.0662 5.48128 11.1948 3.17991 13.098 1.6895C9.64571 -1.00639 4.62211 -0.414614 1.90008 3.02648C-0.799829 6.44566 -0.202309 11.3991 3.27216 14.095C6.17124 16.3525 10.2211 16.3525 13.1202 14.095C11.1948 12.6046 10.0662 10.3032 10.0662 7.89223Z" fill="#EB001B"/>
<path d="M26 7.89224C26 12.2539 22.437 15.7826 18.0331 15.7826C16.2405 15.7826 14.5143 15.1909 13.1201 14.095C16.5725 11.3991 17.17 6.44566 14.4479 3.00456C14.0496 2.52237 13.607 2.0621 13.1201 1.6895C16.5725 -1.00639 21.596 -0.414614 24.296 3.02648C25.4025 4.4073 26 6.11689 26 7.89224Z" fill="#F79E1B"/>
</svg>
